<svg xmlns="http://www.w3.org/2000/svg" width="512" height="512" viewBox="0 0 98.374 98.374">
  <g fill="#eb9328">
    <path d="M97.789 23.118l-7.24-7.24c-.781-.781-2.047-.781-2.828 0L50.464 53.133l-13.291-13.29c-.781-.781-2.047-.781-2.828 0l-7.24 7.24c-.375.375-.586.884-.586 1.414 0 .53.211 1.039.586 1.414L49.05 71.854c.391.391.902.586 1.414.586.513 0 1.022-.195 1.414-.586l45.91-45.908c.375-.375.586-.884.586-1.414 0-.53-.21-1.039-.585-1.414z"/>
    <path d="M73.583 80.979H10V17.395h65.098l8.485-8c0-1.104-.896-2-2-2H2c-1.104 0-2 .896-2 2v79.584c0 1.104.896 2 2 2h79.584c1.105 0 2-.896 2-2v-37.88l-10 10.5-.001 19.38z"/>
  </g>
</svg>
