<svg xmlns="http://www.w3.org/2000/svg" width="540.291" height="128.45" viewBox="0 0 14291 3398" shape-rendering="geometricPrecision" text-rendering="geometricPrecision" image-rendering="optimizeQuality" fill-rule="evenodd" clip-rule="evenodd"><path fill="#fff" d="M3092 1992c-38-465 297-833 713-872 456-44 816 310 855 717 43 462-294 836-704 876-461 44-830-309-864-721zm1875-941c-117 37-161 84-326 81-328-5-584-247-611-608-337-63-755 91-958 247-214 162-404 364-515 698-215 648 68 1326 620 1661 427 260 985 251 1427-18 109-66 250-181 327-279 306-390 441-878 253-1395-41-113-149-328-217-387zm6396 2286l374 1c61-652 29-1419 121-2108 139 151 658 1397 814 1727h310l390-875c57-128 361-783 423-852 94 682 59 1467 122 2105l373 3c16-410-165-2308-199-2753h-326c-123 75-819 1627-935 1900-36-40-183-403-220-484-99-213-634-1392-721-1416h-326c-35 448-91 897-123 1351-20 276-84 1179-77 1401zM382 3051v-969c249 0 601-20 835 32 244 54 406 186 395 474-21 530-756 496-1230 463zm8-2130c415-48 1080-41 1087 408 9 528-723 443-1095 443 0-127-17-785 8-851zM3 655L0 3318c134 66 781 75 956 65 311-18 583-77 789-231 319-239 362-831 79-1074-180-154-273-144-333-189 211-69 365-275 382-519 44-628-535-767-1030-784-158-5-721 12-840 69zm6191 543c28 21 83 91 107 123l301 384c298 393 864 1213 1097 1633l322-2V585l-378 2-2 2023c-32-31-65-97-89-136-170-277-451-662-637-913-167-224-493-645-689-862-42-45-70-64-100-114l-314 3 2 2750 376-2 4-2138zm2490-613c0 343-17 1694 12 1924 71 560 429 890 1035 889 604-1 970-340 1033-902 26-240 10-1558 10-1911l-386 6v1569c0 251-12 473-139 653-226 323-810 336-1053-16-117-168-126-414-126-648V585h-386z"/><path fill="#fff" d="M4619 429c98-62 165 77 83 130-84 54-177-72-83-130zm-62-416c-647 151-422 1097 212 960 232-50 441-297 371-593-54-228-291-435-583-367z"/></svg>
