<svg xmlns="http://www.w3.org/2000/svg" viewBox="0 0 76.08 105.89"><defs><style>.cls-1{fill:#fff;}</style></defs><title>Asset 1</title><g id="Layer_2" data-name="Layer 2"><g id="Layer_1-2" data-name="Layer 1"><path class="cls-1" d="M14.44,93.21V56.58c9.41,0,22.72-.75,31.56,1.21,9.23,2,15.35,7,14.94,17.92C60.14,95.75,32.36,94.46,14.44,93.21Zm.3-80.52c15.69-1.81,40.83-1.55,41.09,15.43.34,20-27.33,16.74-41.39,16.74C14.44,40.06,13.8,15.19,14.74,12.69ZM.11,2.64,0,103.31c5.07,2.49,29.52,2.83,36.14,2.45,11.75-.68,22-2.91,29.82-8.73C78,88,79.65,65.62,69,56.43c-6.8-5.82-10.32-5.44-12.59-7.14,8-2.61,13.8-10.4,14.44-19.62C72.47,5.93,50.58.67,31.87,0,25.89-.16,4.61.48.11,2.64Z"/></g></g></svg>