<svg xmlns="http://www.w3.org/2000/svg" data-name="Capa 1" viewBox="0 0 511.99 511.99" fill="#fff">
  <path d="M192 256a64.08 64.08 0 0 1 64-64h85.33V21.34A21.33 21.33 0 0 0 320 0H21.33A21.33 21.33 0 0 0 0 21.34v469.32A21.33 21.33 0 0 0 21.33 512H320a21.33 21.33 0 0 0 21.33-21.34V320H256a64.07 64.07 0 0 1-64-64z" class="cls-1"/>
  <path d="M507.2 269.48l.18-.25c.36-.46.72-.93 1.05-1.42.15-.23.28-.47.42-.71s.44-.7.64-1.07.29-.61.44-.91.31-.63.44-1 .26-.7.39-1.06.22-.58.31-.88.22-.84.32-1.27c.06-.25.14-.49.19-.74.11-.58.2-1.17.26-1.75 0-.1 0-.2.05-.3a22.27 22.27 0 0 0 0-4.32c0-.1 0-.2-.05-.3-.06-.59-.15-1.17-.26-1.75-.05-.25-.13-.5-.19-.74-.1-.43-.19-.85-.32-1.27s-.21-.59-.31-.88-.24-.72-.39-1.07-.29-.63-.44-1-.28-.61-.44-.92-.42-.71-.64-1.06-.27-.48-.42-.71c-.33-.49-.69-1-1.05-1.42l-.18-.25a20.32 20.32 0 0 0-1.53-1.68l-85.26-85.26a21.33 21.33 0 0 0-30.16 30.17l48.91 48.91H256a21.34 21.34 0 1 0 0 42.67h183.16l-48.91 48.92a21.33 21.33 0 1 0 30.16 30.16l85.26-85.25a22.26 22.26 0 0 0 1.53-1.59z" class="cls-1"/>
</svg>
