<svg xmlns="http://www.w3.org/2000/svg" width="512" height="512" viewBox="0 0 96.992 96.992">
  <path fill="#eb9328" d="M82.297 16.976L66.028.732C65.559.263 64.924 0 64.26 0H16.463c-1.381 0-2.5 1.119-2.5 2.5v91.992c0 1.381 1.119 2.5 2.5 2.5h64.066c1.381 0 2.5-1.119 2.5-2.5V18.744c0-.663-.263-1.299-.732-1.768zm-62.428 4.491c0-.829.672-1.5 1.5-1.5h27.262c.828 0 1.5.671 1.5 1.5v4.389c0 .829-.672 1.5-1.5 1.5H21.369c-.828 0-1.5-.671-1.5-1.5v-4.389zm0 15c0-.829.672-1.5 1.5-1.5h27.262c.828 0 1.5.671 1.5 1.5v4.389c0 .829-.672 1.5-1.5 1.5H21.369c-.828 0-1.5-.671-1.5-1.5v-4.389zm35.5 0c0-.829.672-1.5 1.5-1.5h16.762c.828 0 1.5.671 1.5 1.5v34.388c0 .83-.672 1.5-1.5 1.5H56.869c-.828 0-1.5-.67-1.5-1.5V36.467zm-35.5 15c0-.828.672-1.5 1.5-1.5h27.262c.828 0 1.5.672 1.5 1.5v4.389c0 .83-.672 1.5-1.5 1.5H21.369c-.828 0-1.5-.67-1.5-1.5v-4.389zm0 15c0-.828.672-1.5 1.5-1.5h27.262c.828 0 1.5.672 1.5 1.5v4.389c0 .83-.672 1.5-1.5 1.5H21.369c-.828 0-1.5-.67-1.5-1.5v-4.389zm55.762 19.388c0 .828-.672 1.5-1.5 1.5H21.369c-.828 0-1.5-.672-1.5-1.5v-4.39c0-.829.672-1.5 1.5-1.5h52.762c.828 0 1.5.671 1.5 1.5v4.39zm-13.58-63.512c-.337 0-.658-.134-.896-.372-.237-.238-.372-.561-.372-.897l.002-15.126L77.18 22.344l-15.129-.001z"/>
</svg>
