<?xml version="1.0" encoding="utf-8"?>
<!-- Generator: Adobe Illustrator 22.0.1, SVG Export Plug-In . SVG Version: 6.00 Build 0)  -->
<svg version="1.1" id="Layer_1" xmlns="http://www.w3.org/2000/svg" xmlns:xlink="http://www.w3.org/1999/xlink" x="0px" y="0px"
	 viewBox="0 0 255.1 141.7" style="enable-background:new 0 0 255.1 141.7;" xml:space="preserve">
<style type="text/css">
	.st0{fill:none;}
	.st1{fill:#FFFFFF;}
</style>
<rect x="25.6" class="st0" width="204.7" height="141.7"/>
<g>
	<path class="st1" d="M149.6,52.7h-44.8c-0.4,0-0.8,0.4-0.8,0.8v35.2c0,0.4,0.4,0.8,0.8,0.8h44.8c0.4,0,0.8-0.4,0.8-0.8V53.5
		C150.4,53.1,150,52.7,149.6,52.7L149.6,52.7z M148.8,87.9h-43.2V54.3h43.2V87.9z M148.8,87.9"/>
	<path class="st1" d="M116.8,70.4c2.5,0,4.5-2,4.5-4.5c0-2.5-2-4.5-4.5-4.5c-2.5,0-4.5,2-4.5,4.5C112.3,68.4,114.3,70.4,116.8,70.4
		L116.8,70.4z M116.8,63.1c1.6,0,2.9,1.3,2.9,2.9c0,1.6-1.3,2.9-2.9,2.9s-2.9-1.3-2.9-2.9C113.9,64.4,115.2,63.1,116.8,63.1
		L116.8,63.1z M116.8,63.1"/>
	<path class="st1" d="M109.6,84.7c0.2,0,0.4-0.1,0.5-0.2L123.2,73l8.2,8.2c0.3,0.3,0.8,0.3,1.1,0c0.3-0.3,0.3-0.8,0-1.1l-3.8-3.8
		l7.3-8l9,8.3c0.3,0.3,0.8,0.3,1.1,0c0.3-0.3,0.3-0.8-0.1-1.1l-9.6-8.8c-0.2-0.1-0.4-0.2-0.6-0.2c-0.2,0-0.4,0.1-0.6,0.3l-7.8,8.6
		l-3.8-3.8c-0.3-0.3-0.8-0.3-1.1,0l-13.6,12c-0.3,0.3-0.4,0.8-0.1,1.1C109.2,84.6,109.4,84.7,109.6,84.7L109.6,84.7z M109.6,84.7"/>
</g>
</svg>
