<svg xmlns="http://www.w3.org/2000/svg" width="512" height="512" viewBox="0 0 468.062 468.062">
  <path fill="#FFF" d="M431.379.222h-394.7C16.456.222 0 16.671 0 36.895v394.268c0 20.221 16.456 36.677 36.679 36.677h394.7c20.228 0 36.683-16.456 36.683-36.677V36.895c0-20.23-16.456-36.673-36.683-36.673zm-24.86 41.744c8.689 0 15.723 7.04 15.723 15.72 0 8.683-7.033 15.717-15.723 15.717-8.688 0-15.723-7.04-15.723-15.717 0-8.68 7.034-15.72 15.723-15.72zm-56.33 0c8.688 0 15.723 7.04 15.723 15.72 0 8.683-7.034 15.717-15.723 15.717-8.684 0-15.711-7.04-15.711-15.717.001-8.68 7.028-15.72 15.711-15.72zm-308.276 70.46h184.055v313.495H41.913V112.426zm384.235 313.495H242.104V112.426h184.044v313.495z"/>
</svg>
